<svg width="24" height="18" viewBox="0 0 24 18" fill="none" xmlns="http://www.w3.org/2000/svg">
<path d="M23.63 1.66667C23.168 0.872669 22.318 0.333336 21.3333 0.333336H12V1.66667H23.63ZM0 13.6667H24V15H0V13.6667ZM12 8.33334H24V9.66667H12V8.33334ZM12 5.66667H24V7H12V5.66667ZM0 11H24V12.3333H0V11ZM2.66667 17.6667H21.3333C22.318 17.6667 23.168 17.1273 23.63 16.3333H0.37C0.832 17.1273 1.682 17.6667 2.66667 17.6667ZM12 3H24V4.33334H12V3Z" fill="#B22334"/>
<path d="M0.0453333 15.4527C0.0566667 15.5147 0.0693333 15.5767 0.0846667 15.6373C0.102 15.7047 0.123333 15.7693 0.146 15.8347C0.205333 16.0073 0.277333 16.174 0.368 16.33L0.37 16.3333H23.63L23.6313 16.3307C23.7208 16.1735 23.7949 16.0081 23.8527 15.8367C23.8966 15.7116 23.9305 15.5831 23.954 15.4527C23.9813 15.306 24 15.1553 24 15H0C0 15.1553 0.0186667 15.3053 0.0453333 15.4527ZM0 12.3333H24V13.6667H0V12.3333ZM0 9.66666V11H24V9.66666H12H0ZM12 7H24V8.33333H12V7ZM12 4.33333H24V5.66666H12V4.33333ZM0.37 1.66666L0.368 1.67L0.37 1.66666ZM0.0853333 2.36266C0.102 2.29466 0.125333 2.23 0.146667 2.16466C0.123515 2.2298 0.103054 2.29585 0.0853333 2.36266V2.36266ZM12 3H24C24 2.84466 23.9813 2.694 23.954 2.54666C23.9307 2.41607 23.8965 2.28763 23.852 2.16266C23.7942 1.99054 23.7199 1.82443 23.63 1.66666H12V3Z" fill="#EEEEEE"/>
<path d="M12 0.333336H2.66667C1.95942 0.333336 1.28115 0.614287 0.781049 1.11438C0.280952 1.61448 0 2.29276 0 3L0 9.66667H12V0.333336Z" fill="#3C3B6E"/>
<path d="M1.334 2.15066L1.746 2.45L1.58867 2.93333L2 2.63466L2.412 2.93333L2.25467 2.45L2.66667 2.15066H2.15733L2 1.66666L1.84333 2.15066H1.334ZM2.66733 3.484L3.07933 3.78333L2.922 4.26666L3.33333 3.968L3.74533 4.26666L3.588 3.78333L4 3.484H3.49067L3.33333 3L3.17667 3.484H2.66733ZM5.334 3.484L5.746 3.78333L5.58867 4.26666L6 3.968L6.412 4.26666L6.25467 3.78333L6.66667 3.484H6.15733L6 3L5.84333 3.484H5.334ZM8.00067 3.484L8.41267 3.78333L8.25533 4.26666L8.66667 3.968L9.07867 4.26666L8.92133 3.78333L9.33333 3.484H8.824L8.66667 3L8.51 3.484H8.00067ZM2.66733 6.15066L3.07933 6.45L2.922 6.93333L3.33333 6.63466L3.74533 6.93333L3.588 6.45L4 6.15066H3.49067L3.33333 5.66666L3.17667 6.15066H2.66733ZM5.334 6.15066L5.746 6.45L5.58867 6.93333L6 6.63466L6.412 6.93333L6.25467 6.45L6.66667 6.15066H6.15733L6 5.66666L5.84333 6.15066H5.334ZM8.00067 6.15066L8.41267 6.45L8.25533 6.93333L8.66667 6.63466L9.07867 6.93333L8.92133 6.45L9.33333 6.15066H8.824L8.66667 5.66666L8.51 6.15066H8.00067ZM4.00067 2.15066L4.41267 2.45L4.25533 2.93333L4.66667 2.63466L5.07867 2.93333L4.92133 2.45L5.33333 2.15066H4.824L4.66667 1.66666L4.51 2.15066H4.00067ZM6.66733 2.15066L7.07933 2.45L6.922 2.93333L7.33333 2.63466L7.74533 2.93333L7.588 2.45L8 2.15066H7.49067L7.33333 1.66666L7.17667 2.15066H6.66733ZM9.334 2.15066L9.746 2.45L9.58867 2.93333L10 2.63466L10.412 2.93333L10.2547 2.45L10.6667 2.15066H10.1573L10 1.66666L9.84333 2.15066H9.334ZM1.334 4.81733L1.746 5.11666L1.58867 5.6L2 5.30133L2.412 5.6L2.25467 5.11666L2.66667 4.81733H2.15733L2 4.33333L1.84333 4.81733H1.334ZM4.25533 5.6L4.66667 5.30133L5.07867 5.6L4.92133 5.11666L5.33333 4.81733H4.824L4.66667 4.33333L4.51 4.81733H4.00067L4.41267 5.11666L4.25533 5.6ZM6.66733 4.81733L7.07933 5.11666L6.922 5.6L7.33333 5.30133L7.74533 5.6L7.588 5.11666L8 4.81733H7.49067L7.33333 4.33333L7.17667 4.81733H6.66733ZM9.334 4.81733L9.746 5.11666L9.58867 5.6L10 5.30133L10.412 5.6L10.2547 5.11666L10.6667 4.81733H10.1573L10 4.33333L9.84333 4.81733H9.334ZM1.334 7.484L1.746 7.78333L1.58867 8.26666L2 7.968L2.412 8.26666L2.25467 7.78333L2.66667 7.484H2.15733L2 7L1.84333 7.484H1.334ZM4.25533 8.26666L4.66667 7.968L5.07867 8.26666L4.92133 7.78333L5.33333 7.484H4.824L4.66667 7L4.51 7.484H4.00067L4.41267 7.78333L4.25533 8.26666ZM6.66733 7.484L7.07933 7.78333L6.922 8.26666L7.33333 7.968L7.74533 8.26666L7.588 7.78333L8 7.484H7.49067L7.33333 7L7.17667 7.484H6.66733ZM9.334 7.484L9.746 7.78333L9.58867 8.26666L10 7.968L10.412 8.26666L10.2547 7.78333L10.6667 7.484H10.1573L10 7L9.84333 7.484H9.334Z" fill="white"/>
</svg>
