<svg width="24" height="18" viewBox="0 0 24 18" fill="none" xmlns="http://www.w3.org/2000/svg">
<path d="M24 15C24 15.7072 23.719 16.3855 23.219 16.8856C22.7189 17.3857 22.0406 17.6667 21.3333 17.6667H2.66667C1.95942 17.6667 1.28115 17.3857 0.781049 16.8856C0.280952 16.3855 0 15.7072 0 15V12.3333H24V15Z" fill="#CE2028"/>
<path d="M0 5.66666H24V12.3333H0V5.66666Z" fill="#22408C"/>
<path d="M21.3333 0.333336H2.66667C1.95942 0.333336 1.28115 0.614287 0.781049 1.11438C0.280952 1.61448 0 2.29276 0 3L0 5.66667H24V3C24 2.29276 23.719 1.61448 23.219 1.11438C22.7189 0.614287 22.0406 0.333336 21.3333 0.333336V0.333336Z" fill="#EEEEEE"/>
</svg>
